<svg width="64" height="64" viewBox="0 0 866 787" fill="none" xmlns="http://www.w3.org/2000/svg">
<rect width="866" height="787" fill="white"/>
<path d="M343.727 443.906L139.182 609.5L21 515.903L130.091 134.316L202.818 73.1186L339.182 181.115L311.909 281.911L225.545 209.914L216.454 213.514L148.273 454.705L152.818 458.305L298.273 343.109L275.545 443.906H343.727Z" fill="#7173D7"/>
<path d="M527.273 165.594L731.818 0L850 93.5968L740.909 475.184L668.182 536.381L531.818 428.385L559.091 327.589L645.455 399.586L654.546 395.986L722.727 154.795L718.182 151.195L572.727 266.391L595.455 165.594H527.273Z" fill="#7173D7"/>
<path d="M549.077 201.541L499.538 417.314L459.755 415.116L396.37 274.085L394.668 273.991L363.382 409.791L317.323 407.247L366.862 191.473L407.283 193.706L470.355 334.614L472.163 334.714L503.23 199.008L549.077 201.541Z" fill="#7173D7"/>
</svg>
