<svg width="780" height="256" viewBox="0 0 780 256" fill="none" xmlns="http://www.w3.org/2000/svg">
<path d="M150.768 82.0389L140.175 128.073L131.688 127.608L118.181 97.5294L117.818 97.5096L111.128 126.482L101.302 125.944L111.895 79.9097L120.518 80.382L133.959 110.434L134.344 110.455L140.988 81.5032L150.768 82.0389Z" fill="#FFFFFF"/>
<path d="M108 133.173L64.2676 167.75L39 148.206L62.3239 68.5285L77.8732 55.75L107.028 78.3003L101.197 99.3473L82.7324 84.3138L80.7887 85.0654L66.2113 135.428L67.1831 136.18L98.2817 112.126L93.4225 133.173H108Z" fill="#FFFFFF"/>
<path d="M147 75.3272L190.732 40.75L216 60.2936L192.676 139.971L177.127 152.75L147.972 130.2L153.803 109.153L172.268 124.186L174.211 123.435L188.789 73.0721L187.817 72.3205L156.718 96.3742L161.577 75.3272H147Z" fill="#FFFFFF"/>
<path d="M308.45 85.0909L299.999 136H289.558L274.221 106.618H273.873L268.976 136H256.671L265.123 85.0909H275.712L290.925 114.423H291.348L296.17 85.0909H308.45ZM307.736 136L316.187 85.0909H351.684L349.994 95.0838H326.802L325.111 105.524H346.489L344.799 115.542H323.421L321.731 126.007H344.923L343.233 136H307.736ZM371.372 85.0909L377.984 101.174H378.382L390.463 85.0909H404.706L385.168 110.545L396.752 136H382.956L376.095 119.743H375.697L363.467 136H349.124L369.184 110.545L357.974 85.0909H371.372ZM407.714 95.0838L409.405 85.0909H452.434L450.743 95.0838H435.307L428.545 136H416.415L423.176 95.0838H407.714ZM445.877 127.548L447.468 117.953L473.793 85.0909H482.319L480.157 98.1165H475.21L459.798 117.456L459.699 117.854H489.926L488.31 127.548H445.877ZM469.07 136L470.984 124.615L471.929 120.414L477.77 85.0909H489.279L480.828 136H469.07ZM493.468 136L501.92 85.0909H514.224L507.463 126.007H528.642L526.952 136H493.468ZM533.322 136L541.773 85.0909H577.27L575.58 95.0838H552.388L550.697 105.524H572.075L570.385 115.542H549.007L547.317 126.007H570.509L568.819 136H533.322ZM587.537 136H574.312L599.941 85.0909H616.322L625.047 136H611.823L606.23 97.9176H605.832L587.537 136ZM589.128 115.964H616.77L615.179 125.311H587.537L589.128 115.964ZM630.529 136L638.98 85.0909H660.01C663.822 85.0909 667.003 85.7786 669.556 87.1541C672.108 88.513 673.922 90.4685 674.999 93.0206C676.077 95.5561 676.325 98.5639 675.745 102.044C675.182 105.557 673.922 108.549 671.967 111.018C670.028 113.47 667.526 115.343 664.46 116.636C661.41 117.928 657.947 118.575 654.069 118.575H640.77L642.411 108.88H653.423C655.262 108.88 656.853 108.64 658.195 108.159C659.538 107.662 660.607 106.916 661.402 105.922C662.214 104.911 662.753 103.618 663.018 102.044C663.267 100.47 663.151 99.1688 662.67 98.1413C662.206 97.0973 661.386 96.3184 660.209 95.8047C659.049 95.2744 657.557 95.0092 655.735 95.0092H649.669L642.833 136H630.529ZM663.043 112.733L671.867 136H658.444L649.893 112.733H663.043ZM729.202 85.0909L720.751 136H710.31L694.973 106.618H694.625L689.728 136H677.423L685.875 85.0909H696.464L711.677 114.423H712.1L716.922 85.0909H729.202Z" fill="#FFFFFF"/>
</svg>
