<svg width="256" height="256" viewBox="0 0 256 256" fill="none" xmlns="http://www.w3.org/2000/svg">
<path d="M152.786 96.4824L140.372 150.428L130.426 149.884L114.597 114.635L114.172 114.612L106.332 148.564L94.8166 147.933L107.231 93.9873L117.336 94.5408L133.086 129.758L133.538 129.783L141.324 95.8546L152.786 96.4824Z" fill="url(#paint0_radial_14_81)"/>
<path d="M101.249 154.698L51.6544 194.5L23 172.003L49.4503 80.2844L67.0838 65.5749L100.147 91.5329L93.534 115.76L72.5942 98.4551L70.39 99.3204L53.8586 157.293L54.9607 158.159L90.2277 130.47L84.7173 154.698H101.249Z" fill="url(#paint1_radial_14_81)"/>
<path d="M145.751 87.8024L195.346 48L224 70.497L197.55 162.216L179.916 176.925L146.853 150.967L153.466 126.74L174.406 144.045L176.61 143.18L193.141 85.2066L192.039 84.3413L156.772 112.03L162.283 87.8024H145.751Z" fill="url(#paint2_radial_14_81)"/>
<path d="M46.4787 202.182L42.8565 224H38.3821L31.8089 211.408H31.6598L29.5611 224H24.2876L27.9098 202.182H32.4482L38.968 214.753H39.1491L41.2159 202.182H46.4787ZM46.1724 224L49.7946 202.182H65.0076L64.2832 206.464H54.3436L53.6191 210.939H62.7811L62.0566 215.232H52.8947L52.1703 219.717H62.1099L61.3855 224H46.1724ZM73.4451 202.182L76.2789 209.075H76.4494L81.627 202.182H87.7314L79.3578 213.091L84.3223 224H78.4096L75.4693 217.033H75.2988L70.0574 224H63.9103L72.5076 213.091L67.7029 202.182H73.4451ZM89.0204 206.464L89.7449 202.182H108.186L107.461 206.464H100.846L97.948 224H92.7491L95.6468 206.464H89.0204ZM105.376 220.378L106.058 216.266L117.34 202.182H120.994L120.067 207.764H117.947L111.342 216.053L111.299 216.223H124.254L123.561 220.378H105.376ZM115.316 224L116.136 219.121L116.541 217.32L119.044 202.182H123.977L120.355 224H115.316ZM125.772 224L129.394 202.182H134.668L131.77 219.717H140.847L140.122 224H125.772ZM142.852 224L146.474 202.182H161.687L160.963 206.464H151.023L150.299 210.939H159.461L158.736 215.232H149.574L148.85 219.717H158.79L158.065 224H142.852ZM166.087 224H160.42L171.403 202.182H178.424L182.163 224H176.496L174.099 207.679H173.928L166.087 224ZM166.769 215.413H178.616L177.934 219.419H166.087L166.769 215.413ZM184.512 224L188.134 202.182H197.147C198.781 202.182 200.144 202.477 201.238 203.066C202.332 203.648 203.11 204.487 203.571 205.58C204.033 206.667 204.139 207.956 203.891 209.447C203.649 210.953 203.11 212.235 202.271 213.293C201.441 214.344 200.368 215.147 199.054 215.701C197.747 216.255 196.263 216.532 194.601 216.532H188.901L189.605 212.377H194.324C195.112 212.377 195.794 212.274 196.369 212.068C196.945 211.855 197.403 211.536 197.744 211.109C198.092 210.676 198.323 210.122 198.436 209.447C198.543 208.773 198.493 208.215 198.287 207.775C198.088 207.327 197.737 206.994 197.232 206.773C196.735 206.546 196.096 206.433 195.315 206.433H192.715L189.786 224H184.512ZM198.447 214.028L202.229 224H196.476L192.811 214.028H198.447ZM226.801 202.182L223.179 224H218.704L212.131 211.408H211.982L209.883 224H204.61L208.232 202.182H212.77L219.29 214.753H219.471L221.538 202.182H226.801Z" fill="#FFFFFF"/>
<defs>
<radialGradient id="paint0_radial_14_81" cx="0" cy="0" r="1" gradientTransform="matrix(37.6065 11.5009 -9.46803 69.825 127.713 120.376)" gradientUnits="userSpaceOnUse">
<stop offset="0.00480769" stop-color="#3D78FF"/>
<stop offset="1" stop-color="#C229E0"/>
</radialGradient>
<radialGradient id="paint1_radial_14_81" cx="0" cy="0" r="1" gradientTransform="matrix(51.4845 15.6206 -6.91002 116.385 66.6986 137.958)" gradientUnits="userSpaceOnUse">
<stop offset="0.00480769" stop-color="#3D78FF"/>
<stop offset="1" stop-color="#C229E0"/>
</radialGradient>
<radialGradient id="paint2_radial_14_81" cx="0" cy="0" r="1" gradientTransform="matrix(-51.4845 -15.6206 6.91002 -116.385 180.301 104.542)" gradientUnits="userSpaceOnUse">
<stop offset="0.00480769" stop-color="#3D78FF"/>
<stop offset="1" stop-color="#C229E0"/>
</radialGradient>
</defs>
</svg>