<svg width="245" height="245" viewBox="0 0 245 245" fill="none" xmlns="http://www.w3.org/2000/svg">
<rect width="245" height="245" rx="56" fill="#437BF5"/>
<path d="M145.768 100.289L135.175 146.323L126.688 145.858L113.181 115.779L112.818 115.76L106.128 144.732L96.3017 144.194L106.895 98.1597L115.518 98.632L128.959 128.684L129.344 128.705L135.988 99.7532L145.768 100.289Z" fill="white"/>
<path d="M103 151.423L59.2676 186L34 166.456L57.3239 86.7785L72.8732 74L102.028 96.5503L96.1972 117.597L77.7324 102.564L75.7887 103.315L61.2113 153.678L62.1831 154.43L93.2817 130.376L88.4225 151.423H103Z" fill="white"/>
<path d="M142 93.5772L185.732 59L211 78.5436L187.676 158.221L172.127 171L142.972 148.45L148.803 127.403L167.268 142.436L169.211 141.685L183.789 91.3221L182.817 90.5705L151.718 114.624L156.577 93.5772H142Z" fill="white"/>
</svg>
